<mxfile host="app.diagrams.net" modified="2023-03-30T12:43:19.982Z" agent="Mozilla/5.0 (Windows NT 10.0; Win64; x64) AppleWebKit/537.36 (KHTML, like Gecko) Chrome/111.0.0.0 Safari/537.36" version="21.1.1" etag="wSwcPsw3RnP3Hq7cFID4" type="github">
  <diagram name="第 1 页" id="Dp4KokdB9Yo0VFzulYqV">
    <mxGraphModel>
      <root>
        <mxCell id="0" />
        <mxCell id="1" parent="0" />
      </root>
    </mxGraphModel>
  </diagram>
</mxfile>
